# xmcd
#
# Track frame offsets:
#	150
#	12815
#	23285
#	33785
#	46812
#	58130
#	68790
#	77505
#	89750
#	99942
#
# Disc length: 1501 seconds
#
# Revision: 0
# Processed by: cddbd v1.5.1PL0 Copyright (c) Steve Scherf et al.
# Submitted via: dBpowerAMP V4.0
#
DISCID=6805db0a
DTITLE=Johnny Cash - The Man In Black
DYEAR=2004
DGENRE=Country
TTITLE0=I Walk The Line
TTITLE1=Get Rhythm
TTITLE2=Hey! Porter
TTITLE3=Folsom Prison Blues
TTITLE4=Cry, Cry, Cry
TTITLE5=There You Go
TTITLE6=Guess Things Happen That Way
TTITLE7=Thanks A Lot
TTITLE8=Ballad Of A Teenage Queen
TTITLE9=Give My Love To Rose
EXTD=Johnny Cash  The Man In Black
EXTT0=
EXTT1=
EXTT2=
EXTT3=
EXTT4=
EXTT5=
EXTT6=
EXTT7=
EXTT8=
EXTT9=
PLAYORDER=
